<mxfile host="app.diagrams.net" agent="Mozilla/5.0 (Windows NT 10.0; Win64; x64) AppleWebKit/537.36 (KHTML, like Gecko) Chrome/131.0.0.0 Safari/537.36" version="26.0.5">
  <diagram name="PÃ¡gina-1" id="s3zIilqeUDxls5-f_mEL">
    <mxGraphModel dx="1720" dy="3034" grid="1" gridSize="10" guides="1" tooltips="1" connect="1" arrows="1" fold="1" page="1" pageScale="1" pageWidth="827" pageHeight="1169" math="0" shadow="0">
      <root>
        <mxCell id="0" />
        <mxCell id="1" parent="0" />
        <mxCell id="5vtmu79jiAvLtElCgTqz-1" value="" style="rounded=0;whiteSpace=wrap;html=1;fillColor=none;" parent="1" vertex="1">
          <mxGeometry x="802" y="-1200" width="258" height="400" as="geometry" />
        </mxCell>
        <mxCell id="JS-59geEHKysc21OP4H1-30" style="edgeStyle=orthogonalEdgeStyle;rounded=0;orthogonalLoop=1;jettySize=auto;html=1;exitX=0.5;exitY=0;exitDx=0;exitDy=0;" parent="1" source="JS-59geEHKysc21OP4H1-25" edge="1">
          <mxGeometry relative="1" as="geometry">
            <mxPoint x="370" y="-1260" as="targetPoint" />
            <Array as="points">
              <mxPoint x="440" y="-1130" />
              <mxPoint x="371" y="-1130" />
              <mxPoint x="371" y="-1250" />
            </Array>
          </mxGeometry>
        </mxCell>
        <mxCell id="5vtmu79jiAvLtElCgTqz-2" value="" style="rounded=0;whiteSpace=wrap;html=1;fillColor=none;" parent="1" vertex="1">
          <mxGeometry x="92" y="-1110" width="682" height="290" as="geometry" />
        </mxCell>
        <mxCell id="JS-59geEHKysc21OP4H1-22" style="edgeStyle=orthogonalEdgeStyle;rounded=0;orthogonalLoop=1;jettySize=auto;html=1;exitX=0.5;exitY=0;exitDx=0;exitDy=0;entryX=0.5;entryY=1;entryDx=0;entryDy=0;" parent="1" source="5vtmu79jiAvLtElCgTqz-30" target="JS-59geEHKysc21OP4H1-17" edge="1">
          <mxGeometry relative="1" as="geometry">
            <Array as="points">
              <mxPoint x="171" y="-1010" />
              <mxPoint x="198" y="-1010" />
            </Array>
          </mxGeometry>
        </mxCell>
        <mxCell id="5vtmu79jiAvLtElCgTqz-30" value="Taxi&lt;span style=&quot;background-color: transparent; color: light-dark(rgb(0, 0, 0), rgb(255, 255, 255));&quot;&gt;Controller&lt;/span&gt;" style="swimlane;fontStyle=1;align=center;verticalAlign=top;childLayout=stackLayout;horizontal=1;startSize=26;horizontalStack=0;resizeParent=1;resizeParentMax=0;resizeLast=0;collapsible=1;marginBottom=0;whiteSpace=wrap;html=1;" parent="1" vertex="1">
          <mxGeometry x="100" y="-968" width="142" height="60" as="geometry" />
        </mxCell>
        <mxCell id="5vtmu79jiAvLtElCgTqz-31" value="&amp;nbsp;" style="text;strokeColor=none;fillColor=none;align=left;verticalAlign=top;spacingLeft=4;spacingRight=4;overflow=hidden;rotatable=0;points=[[0,0.5],[1,0.5]];portConstraint=eastwest;whiteSpace=wrap;html=1;" parent="5vtmu79jiAvLtElCgTqz-30" vertex="1">
          <mxGeometry y="26" width="142" height="26" as="geometry" />
        </mxCell>
        <mxCell id="5vtmu79jiAvLtElCgTqz-32" value="" style="line;strokeWidth=1;fillColor=none;align=left;verticalAlign=middle;spacingTop=-1;spacingLeft=3;spacingRight=3;rotatable=0;labelPosition=right;points=[];portConstraint=eastwest;strokeColor=inherit;" parent="5vtmu79jiAvLtElCgTqz-30" vertex="1">
          <mxGeometry y="52" width="142" height="8" as="geometry" />
        </mxCell>
        <mxCell id="5vtmu79jiAvLtElCgTqz-38" value="Agent Layer" style="html=1;whiteSpace=wrap;" parent="1" vertex="1">
          <mxGeometry x="92" y="-1160" width="110" height="50" as="geometry" />
        </mxCell>
        <mxCell id="5vtmu79jiAvLtElCgTqz-52" value="City (Juego)" style="swimlane;fontStyle=1;align=center;verticalAlign=top;childLayout=stackLayout;horizontal=1;startSize=26;horizontalStack=0;resizeParent=1;resizeParentMax=0;resizeLast=0;collapsible=1;marginBottom=0;whiteSpace=wrap;html=1;" parent="1" vertex="1">
          <mxGeometry x="845" y="-958" width="160" height="60" as="geometry" />
        </mxCell>
        <mxCell id="5vtmu79jiAvLtElCgTqz-53" value="&amp;nbsp;" style="text;strokeColor=none;fillColor=none;align=left;verticalAlign=top;spacingLeft=4;spacingRight=4;overflow=hidden;rotatable=0;points=[[0,0.5],[1,0.5]];portConstraint=eastwest;whiteSpace=wrap;html=1;" parent="5vtmu79jiAvLtElCgTqz-52" vertex="1">
          <mxGeometry y="26" width="160" height="26" as="geometry" />
        </mxCell>
        <mxCell id="5vtmu79jiAvLtElCgTqz-54" value="" style="line;strokeWidth=1;fillColor=none;align=left;verticalAlign=middle;spacingTop=-1;spacingLeft=3;spacingRight=3;rotatable=0;labelPosition=right;points=[];portConstraint=eastwest;strokeColor=inherit;" parent="5vtmu79jiAvLtElCgTqz-52" vertex="1">
          <mxGeometry y="52" width="160" height="8" as="geometry" />
        </mxCell>
        <mxCell id="5vtmu79jiAvLtElCgTqz-71" value="" style="rounded=0;whiteSpace=wrap;html=1;fillColor=none;" parent="1" vertex="1">
          <mxGeometry x="92" y="-1580" width="588" height="400" as="geometry" />
        </mxCell>
        <mxCell id="5vtmu79jiAvLtElCgTqz-73" value="SceneManager" style="swimlane;fontStyle=0;childLayout=stackLayout;horizontal=1;startSize=26;fillColor=none;horizontalStack=0;resizeParent=1;resizeParentMax=0;resizeLast=0;collapsible=1;marginBottom=0;whiteSpace=wrap;html=1;" parent="1" vertex="1">
          <mxGeometry x="228" y="-1544" width="140" height="52" as="geometry" />
        </mxCell>
        <mxCell id="5vtmu79jiAvLtElCgTqz-75" value="GameManager" style="swimlane;fontStyle=0;childLayout=stackLayout;horizontal=1;startSize=26;fillColor=none;horizontalStack=0;resizeParent=1;resizeParentMax=0;resizeLast=0;collapsible=1;marginBottom=0;whiteSpace=wrap;html=1;" parent="1" vertex="1">
          <mxGeometry x="430" y="-1544" width="140" height="52" as="geometry" />
        </mxCell>
        <mxCell id="5vtmu79jiAvLtElCgTqz-76" value="Managers Layer" style="html=1;whiteSpace=wrap;" parent="1" vertex="1">
          <mxGeometry x="92" y="-1620" width="150" height="40" as="geometry" />
        </mxCell>
        <mxCell id="5vtmu79jiAvLtElCgTqz-100" value="MenuInicial" style="swimlane;fontStyle=1;align=center;verticalAlign=top;childLayout=stackLayout;horizontal=1;startSize=26;horizontalStack=0;resizeParent=1;resizeParentMax=0;resizeLast=0;collapsible=1;marginBottom=0;whiteSpace=wrap;html=1;" parent="1" vertex="1">
          <mxGeometry x="150" y="-1470" width="160" height="60" as="geometry" />
        </mxCell>
        <mxCell id="5vtmu79jiAvLtElCgTqz-101" value="&amp;nbsp;" style="text;strokeColor=none;fillColor=none;align=left;verticalAlign=top;spacingLeft=4;spacingRight=4;overflow=hidden;rotatable=0;points=[[0,0.5],[1,0.5]];portConstraint=eastwest;whiteSpace=wrap;html=1;" parent="5vtmu79jiAvLtElCgTqz-100" vertex="1">
          <mxGeometry y="26" width="160" height="26" as="geometry" />
        </mxCell>
        <mxCell id="5vtmu79jiAvLtElCgTqz-102" value="" style="line;strokeWidth=1;fillColor=none;align=left;verticalAlign=middle;spacingTop=-1;spacingLeft=3;spacingRight=3;rotatable=0;labelPosition=right;points=[];portConstraint=eastwest;strokeColor=inherit;" parent="5vtmu79jiAvLtElCgTqz-100" vertex="1">
          <mxGeometry y="52" width="160" height="8" as="geometry" />
        </mxCell>
        <mxCell id="5vtmu79jiAvLtElCgTqz-103" value="Juego" style="swimlane;fontStyle=1;align=center;verticalAlign=top;childLayout=stackLayout;horizontal=1;startSize=26;horizontalStack=0;resizeParent=1;resizeParentMax=0;resizeLast=0;collapsible=1;marginBottom=0;whiteSpace=wrap;html=1;" parent="1" vertex="1">
          <mxGeometry x="150" y="-1400" width="160" height="60" as="geometry" />
        </mxCell>
        <mxCell id="5vtmu79jiAvLtElCgTqz-104" value="&amp;nbsp;" style="text;strokeColor=none;fillColor=none;align=left;verticalAlign=top;spacingLeft=4;spacingRight=4;overflow=hidden;rotatable=0;points=[[0,0.5],[1,0.5]];portConstraint=eastwest;whiteSpace=wrap;html=1;" parent="5vtmu79jiAvLtElCgTqz-103" vertex="1">
          <mxGeometry y="26" width="160" height="26" as="geometry" />
        </mxCell>
        <mxCell id="5vtmu79jiAvLtElCgTqz-105" value="" style="line;strokeWidth=1;fillColor=none;align=left;verticalAlign=middle;spacingTop=-1;spacingLeft=3;spacingRight=3;rotatable=0;labelPosition=right;points=[];portConstraint=eastwest;strokeColor=inherit;" parent="5vtmu79jiAvLtElCgTqz-103" vertex="1">
          <mxGeometry y="52" width="160" height="8" as="geometry" />
        </mxCell>
        <mxCell id="5vtmu79jiAvLtElCgTqz-106" value="Derrota" style="swimlane;fontStyle=1;align=center;verticalAlign=top;childLayout=stackLayout;horizontal=1;startSize=26;horizontalStack=0;resizeParent=1;resizeParentMax=0;resizeLast=0;collapsible=1;marginBottom=0;whiteSpace=wrap;html=1;" parent="1" vertex="1">
          <mxGeometry x="150" y="-1258" width="160" height="60" as="geometry" />
        </mxCell>
        <mxCell id="5vtmu79jiAvLtElCgTqz-107" value="&amp;nbsp;" style="text;strokeColor=none;fillColor=none;align=left;verticalAlign=top;spacingLeft=4;spacingRight=4;overflow=hidden;rotatable=0;points=[[0,0.5],[1,0.5]];portConstraint=eastwest;whiteSpace=wrap;html=1;" parent="5vtmu79jiAvLtElCgTqz-106" vertex="1">
          <mxGeometry y="26" width="160" height="26" as="geometry" />
        </mxCell>
        <mxCell id="5vtmu79jiAvLtElCgTqz-108" value="" style="line;strokeWidth=1;fillColor=none;align=left;verticalAlign=middle;spacingTop=-1;spacingLeft=3;spacingRight=3;rotatable=0;labelPosition=right;points=[];portConstraint=eastwest;strokeColor=inherit;" parent="5vtmu79jiAvLtElCgTqz-106" vertex="1">
          <mxGeometry y="52" width="160" height="8" as="geometry" />
        </mxCell>
        <mxCell id="5vtmu79jiAvLtElCgTqz-109" value="" style="endArrow=diamondThin;endFill=1;endSize=24;html=1;rounded=0;entryX=0.75;entryY=1;entryDx=0;entryDy=0;exitX=1;exitY=0.5;exitDx=0;exitDy=0;" parent="1" source="5vtmu79jiAvLtElCgTqz-101" target="5vtmu79jiAvLtElCgTqz-73" edge="1">
          <mxGeometry width="160" relative="1" as="geometry">
            <mxPoint x="400" y="-1420" as="sourcePoint" />
            <mxPoint x="560" y="-1420" as="targetPoint" />
            <Array as="points">
              <mxPoint x="333" y="-1431" />
            </Array>
          </mxGeometry>
        </mxCell>
        <mxCell id="5vtmu79jiAvLtElCgTqz-110" value="" style="endArrow=diamondThin;endFill=1;endSize=24;html=1;rounded=0;exitX=1;exitY=0.5;exitDx=0;exitDy=0;entryX=0.75;entryY=1;entryDx=0;entryDy=0;" parent="1" target="5vtmu79jiAvLtElCgTqz-73" edge="1">
          <mxGeometry width="160" relative="1" as="geometry">
            <mxPoint x="310" y="-1359" as="sourcePoint" />
            <mxPoint x="333" y="-1490" as="targetPoint" />
            <Array as="points">
              <mxPoint x="333" y="-1359" />
            </Array>
          </mxGeometry>
        </mxCell>
        <mxCell id="5vtmu79jiAvLtElCgTqz-111" value="" style="endArrow=diamondThin;endFill=1;endSize=24;html=1;rounded=0;entryX=0.75;entryY=1;entryDx=0;entryDy=0;exitX=1;exitY=0.5;exitDx=0;exitDy=0;" parent="1" target="5vtmu79jiAvLtElCgTqz-73" edge="1">
          <mxGeometry width="160" relative="1" as="geometry">
            <mxPoint x="310" y="-1288" as="sourcePoint" />
            <mxPoint x="333" y="-1349" as="targetPoint" />
            <Array as="points">
              <mxPoint x="333" y="-1288" />
            </Array>
          </mxGeometry>
        </mxCell>
        <mxCell id="5vtmu79jiAvLtElCgTqz-122" value="" style="endArrow=diamondThin;endFill=1;endSize=24;html=1;rounded=0;exitX=1;exitY=0.5;exitDx=0;exitDy=0;entryX=0;entryY=0.5;entryDx=0;entryDy=0;" parent="1" source="5vtmu79jiAvLtElCgTqz-73" target="5vtmu79jiAvLtElCgTqz-75" edge="1">
          <mxGeometry width="160" relative="1" as="geometry">
            <mxPoint x="356" y="-1553" as="sourcePoint" />
            <mxPoint x="390" y="-1590" as="targetPoint" />
            <Array as="points" />
          </mxGeometry>
        </mxCell>
        <mxCell id="5vtmu79jiAvLtElCgTqz-125" value="Scene" style="swimlane;fontStyle=1;align=center;verticalAlign=top;childLayout=stackLayout;horizontal=1;startSize=26;horizontalStack=0;resizeParent=1;resizeParentMax=0;resizeLast=0;collapsible=1;marginBottom=0;whiteSpace=wrap;html=1;" parent="1" vertex="1">
          <mxGeometry x="845" y="-1058" width="160" height="60" as="geometry" />
        </mxCell>
        <mxCell id="5vtmu79jiAvLtElCgTqz-126" value="&amp;nbsp;" style="text;strokeColor=none;fillColor=none;align=left;verticalAlign=top;spacingLeft=4;spacingRight=4;overflow=hidden;rotatable=0;points=[[0,0.5],[1,0.5]];portConstraint=eastwest;whiteSpace=wrap;html=1;" parent="5vtmu79jiAvLtElCgTqz-125" vertex="1">
          <mxGeometry y="26" width="160" height="26" as="geometry" />
        </mxCell>
        <mxCell id="5vtmu79jiAvLtElCgTqz-127" value="" style="line;strokeWidth=1;fillColor=none;align=left;verticalAlign=middle;spacingTop=-1;spacingLeft=3;spacingRight=3;rotatable=0;labelPosition=right;points=[];portConstraint=eastwest;strokeColor=inherit;" parent="5vtmu79jiAvLtElCgTqz-125" vertex="1">
          <mxGeometry y="52" width="160" height="8" as="geometry" />
        </mxCell>
        <mxCell id="5vtmu79jiAvLtElCgTqz-132" value="" style="endArrow=diamondThin;endFill=1;endSize=24;html=1;rounded=0;exitX=0.5;exitY=1;exitDx=0;exitDy=0;entryX=0.5;entryY=0;entryDx=0;entryDy=0;" parent="1" source="5vtmu79jiAvLtElCgTqz-125" target="5vtmu79jiAvLtElCgTqz-52" edge="1">
          <mxGeometry width="160" relative="1" as="geometry">
            <mxPoint x="825" y="-983.5" as="sourcePoint" />
            <mxPoint x="795" y="-1052.5" as="targetPoint" />
            <Array as="points" />
          </mxGeometry>
        </mxCell>
        <mxCell id="5vtmu79jiAvLtElCgTqz-133" value="Scene Layer" style="html=1;whiteSpace=wrap;" parent="1" vertex="1">
          <mxGeometry x="802" y="-1251" width="110" height="50" as="geometry" />
        </mxCell>
        <mxCell id="5vtmu79jiAvLtElCgTqz-135" value="UserInterface" style="swimlane;fontStyle=0;childLayout=stackLayout;horizontal=1;startSize=26;fillColor=none;horizontalStack=0;resizeParent=1;resizeParentMax=0;resizeLast=0;collapsible=1;marginBottom=0;whiteSpace=wrap;html=1;" parent="1" vertex="1">
          <mxGeometry x="420" y="-1392" width="140" height="52" as="geometry" />
        </mxCell>
        <mxCell id="5vtmu79jiAvLtElCgTqz-136" value="" style="endArrow=diamondThin;endFill=1;endSize=24;html=1;rounded=0;" parent="1" edge="1">
          <mxGeometry width="160" relative="1" as="geometry">
            <mxPoint x="490" y="-1390" as="sourcePoint" />
            <mxPoint x="490" y="-1492" as="targetPoint" />
            <Array as="points">
              <mxPoint x="490" y="-1390" />
            </Array>
          </mxGeometry>
        </mxCell>
        <mxCell id="5vtmu79jiAvLtElCgTqz-140" value="PoliceCar&lt;span style=&quot;background-color: transparent; color: light-dark(rgb(0, 0, 0), rgb(255, 255, 255));&quot;&gt;Controller&lt;/span&gt;" style="swimlane;fontStyle=1;align=center;verticalAlign=top;childLayout=stackLayout;horizontal=1;startSize=26;horizontalStack=0;resizeParent=1;resizeParentMax=0;resizeLast=0;collapsible=1;marginBottom=0;whiteSpace=wrap;html=1;" parent="1" vertex="1">
          <mxGeometry x="592" y="-968" width="160" height="60" as="geometry" />
        </mxCell>
        <mxCell id="5vtmu79jiAvLtElCgTqz-141" value="NavMeshAgent" style="text;strokeColor=none;fillColor=none;align=left;verticalAlign=top;spacingLeft=4;spacingRight=4;overflow=hidden;rotatable=0;points=[[0,0.5],[1,0.5]];portConstraint=eastwest;whiteSpace=wrap;html=1;" parent="5vtmu79jiAvLtElCgTqz-140" vertex="1">
          <mxGeometry y="26" width="160" height="26" as="geometry" />
        </mxCell>
        <mxCell id="5vtmu79jiAvLtElCgTqz-142" value="" style="line;strokeWidth=1;fillColor=none;align=left;verticalAlign=middle;spacingTop=-1;spacingLeft=3;spacingRight=3;rotatable=0;labelPosition=right;points=[];portConstraint=eastwest;strokeColor=inherit;" parent="5vtmu79jiAvLtElCgTqz-140" vertex="1">
          <mxGeometry y="52" width="160" height="8" as="geometry" />
        </mxCell>
        <mxCell id="JS-59geEHKysc21OP4H1-2" style="edgeStyle=orthogonalEdgeStyle;rounded=0;orthogonalLoop=1;jettySize=auto;html=1;entryX=0.5;entryY=1;entryDx=0;entryDy=0;" parent="1" source="JS-59geEHKysc21OP4H1-1" target="5vtmu79jiAvLtElCgTqz-135" edge="1">
          <mxGeometry relative="1" as="geometry" />
        </mxCell>
        <mxCell id="JS-59geEHKysc21OP4H1-1" value="ProgressBarController" style="swimlane;fontStyle=0;childLayout=stackLayout;horizontal=1;startSize=26;fillColor=none;horizontalStack=0;resizeParent=1;resizeParentMax=0;resizeLast=0;collapsible=1;marginBottom=0;whiteSpace=wrap;html=1;" parent="1" vertex="1">
          <mxGeometry x="344" y="-1310" width="140" height="52" as="geometry" />
        </mxCell>
        <mxCell id="JS-59geEHKysc21OP4H1-4" style="edgeStyle=orthogonalEdgeStyle;rounded=0;orthogonalLoop=1;jettySize=auto;html=1;entryX=0.5;entryY=1;entryDx=0;entryDy=0;" parent="1" source="JS-59geEHKysc21OP4H1-3" target="5vtmu79jiAvLtElCgTqz-135" edge="1">
          <mxGeometry relative="1" as="geometry">
            <Array as="points">
              <mxPoint x="570" y="-1330" />
              <mxPoint x="490" y="-1330" />
            </Array>
          </mxGeometry>
        </mxCell>
        <mxCell id="JS-59geEHKysc21OP4H1-3" value="GameScore" style="swimlane;fontStyle=0;childLayout=stackLayout;horizontal=1;startSize=26;fillColor=none;horizontalStack=0;resizeParent=1;resizeParentMax=0;resizeLast=0;collapsible=1;marginBottom=0;whiteSpace=wrap;html=1;" parent="1" vertex="1">
          <mxGeometry x="500" y="-1310" width="140" height="52" as="geometry" />
        </mxCell>
        <mxCell id="JS-59geEHKysc21OP4H1-29" style="edgeStyle=orthogonalEdgeStyle;rounded=0;orthogonalLoop=1;jettySize=auto;html=1;exitX=0.5;exitY=0;exitDx=0;exitDy=0;entryX=1;entryY=0.5;entryDx=0;entryDy=0;" parent="1" source="JS-59geEHKysc21OP4H1-6" target="JS-59geEHKysc21OP4H1-25" edge="1">
          <mxGeometry relative="1" as="geometry">
            <Array as="points">
              <mxPoint x="672" y="-1068" />
            </Array>
          </mxGeometry>
        </mxCell>
        <mxCell id="JS-59geEHKysc21OP4H1-6" value="&lt;div&gt;&lt;span style=&quot;background-color: initial;&quot;&gt;PoliceCarFactory&lt;/span&gt;&lt;br&gt;&lt;/div&gt;" style="swimlane;fontStyle=1;align=center;verticalAlign=top;childLayout=stackLayout;horizontal=1;startSize=26;horizontalStack=0;resizeParent=1;resizeParentMax=0;resizeLast=0;collapsible=1;marginBottom=0;whiteSpace=wrap;html=1;" parent="1" vertex="1">
          <mxGeometry x="592" y="-1058" width="160" height="60" as="geometry" />
        </mxCell>
        <mxCell id="JS-59geEHKysc21OP4H1-7" value="&amp;nbsp;" style="text;strokeColor=none;fillColor=none;align=left;verticalAlign=top;spacingLeft=4;spacingRight=4;overflow=hidden;rotatable=0;points=[[0,0.5],[1,0.5]];portConstraint=eastwest;whiteSpace=wrap;html=1;" parent="JS-59geEHKysc21OP4H1-6" vertex="1">
          <mxGeometry y="26" width="160" height="26" as="geometry" />
        </mxCell>
        <mxCell id="JS-59geEHKysc21OP4H1-8" value="" style="line;strokeWidth=1;fillColor=none;align=left;verticalAlign=middle;spacingTop=-1;spacingLeft=3;spacingRight=3;rotatable=0;labelPosition=right;points=[];portConstraint=eastwest;strokeColor=inherit;" parent="JS-59geEHKysc21OP4H1-6" vertex="1">
          <mxGeometry y="52" width="160" height="8" as="geometry" />
        </mxCell>
        <mxCell id="JS-59geEHKysc21OP4H1-10" value="" style="endArrow=open;endSize=12;dashed=1;html=1;rounded=0;exitX=0.5;exitY=0;exitDx=0;exitDy=0;entryX=0.503;entryY=0.551;entryDx=0;entryDy=0;entryPerimeter=0;" parent="1" source="5vtmu79jiAvLtElCgTqz-140" target="JS-59geEHKysc21OP4H1-8" edge="1">
          <mxGeometry x="-0.125" y="60" width="160" relative="1" as="geometry">
            <mxPoint x="1044" y="-1148" as="sourcePoint" />
            <mxPoint x="782" y="-998" as="targetPoint" />
            <mxPoint as="offset" />
          </mxGeometry>
        </mxCell>
        <mxCell id="JS-59geEHKysc21OP4H1-14" style="edgeStyle=orthogonalEdgeStyle;rounded=0;orthogonalLoop=1;jettySize=auto;html=1;entryX=0.5;entryY=1;entryDx=0;entryDy=0;" parent="1" source="JS-59geEHKysc21OP4H1-13" target="5vtmu79jiAvLtElCgTqz-135" edge="1">
          <mxGeometry relative="1" as="geometry" />
        </mxCell>
        <mxCell id="JS-59geEHKysc21OP4H1-13" value="PoliceAlert" style="swimlane;fontStyle=0;childLayout=stackLayout;horizontal=1;startSize=26;fillColor=none;horizontalStack=0;resizeParent=1;resizeParentMax=0;resizeLast=0;collapsible=1;marginBottom=0;whiteSpace=wrap;html=1;" parent="1" vertex="1">
          <mxGeometry x="420" y="-1252" width="140" height="52" as="geometry" />
        </mxCell>
        <mxCell id="JS-59geEHKysc21OP4H1-23" style="edgeStyle=orthogonalEdgeStyle;rounded=0;orthogonalLoop=1;jettySize=auto;html=1;exitX=0.5;exitY=0;exitDx=0;exitDy=0;entryX=0.5;entryY=1;entryDx=0;entryDy=0;" parent="1" source="JS-59geEHKysc21OP4H1-16" target="JS-59geEHKysc21OP4H1-17" edge="1">
          <mxGeometry relative="1" as="geometry">
            <mxPoint x="200" y="-1040" as="targetPoint" />
            <Array as="points">
              <mxPoint x="344" y="-1010" />
              <mxPoint x="198" y="-1010" />
            </Array>
          </mxGeometry>
        </mxCell>
        <mxCell id="JS-59geEHKysc21OP4H1-16" value="CameraController" style="swimlane;fontStyle=0;childLayout=stackLayout;horizontal=1;startSize=26;fillColor=none;horizontalStack=0;resizeParent=1;resizeParentMax=0;resizeLast=0;collapsible=1;marginBottom=0;whiteSpace=wrap;html=1;" parent="1" vertex="1">
          <mxGeometry x="845" y="-872" width="140" height="52" as="geometry" />
        </mxCell>
        <mxCell id="JS-59geEHKysc21OP4H1-28" style="edgeStyle=orthogonalEdgeStyle;rounded=0;orthogonalLoop=1;jettySize=auto;html=1;exitX=1;exitY=0.5;exitDx=0;exitDy=0;entryX=0;entryY=0.5;entryDx=0;entryDy=0;" parent="1" source="JS-59geEHKysc21OP4H1-17" target="JS-59geEHKysc21OP4H1-25" edge="1">
          <mxGeometry relative="1" as="geometry" />
        </mxCell>
        <mxCell id="JS-59geEHKysc21OP4H1-17" value="Taxi" style="swimlane;fontStyle=0;childLayout=stackLayout;horizontal=1;startSize=26;fillColor=none;horizontalStack=0;resizeParent=1;resizeParentMax=0;resizeLast=0;collapsible=1;marginBottom=0;whiteSpace=wrap;html=1;" parent="1" vertex="1">
          <mxGeometry x="128" y="-1094" width="140" height="52" as="geometry" />
        </mxCell>
        <mxCell id="JS-59geEHKysc21OP4H1-20" style="edgeStyle=orthogonalEdgeStyle;rounded=0;orthogonalLoop=1;jettySize=auto;html=1;exitX=0.5;exitY=0;exitDx=0;exitDy=0;entryX=0.5;entryY=1;entryDx=0;entryDy=0;" parent="1" source="JS-59geEHKysc21OP4H1-19" target="JS-59geEHKysc21OP4H1-1" edge="1">
          <mxGeometry relative="1" as="geometry">
            <Array as="points">
              <mxPoint x="915" y="-1150" />
              <mxPoint x="414" y="-1150" />
            </Array>
          </mxGeometry>
        </mxCell>
        <mxCell id="JS-59geEHKysc21OP4H1-19" value="PatienceObjectSpawner" style="swimlane;fontStyle=0;childLayout=stackLayout;horizontal=1;startSize=26;fillColor=none;horizontalStack=0;resizeParent=1;resizeParentMax=0;resizeLast=0;collapsible=1;marginBottom=0;whiteSpace=wrap;html=1;" parent="1" vertex="1">
          <mxGeometry x="840" y="-1140" width="150" height="60" as="geometry" />
        </mxCell>
        <mxCell id="JS-59geEHKysc21OP4H1-25" value="RouteGenerator" style="swimlane;fontStyle=1;align=center;verticalAlign=top;childLayout=stackLayout;horizontal=1;startSize=26;horizontalStack=0;resizeParent=1;resizeParentMax=0;resizeLast=0;collapsible=1;marginBottom=0;whiteSpace=wrap;html=1;" parent="1" vertex="1">
          <mxGeometry x="360" y="-1098" width="160" height="60" as="geometry" />
        </mxCell>
        <mxCell id="JS-59geEHKysc21OP4H1-26" value="+GenerateRoute" style="text;strokeColor=none;fillColor=none;align=left;verticalAlign=top;spacingLeft=4;spacingRight=4;overflow=hidden;rotatable=0;points=[[0,0.5],[1,0.5]];portConstraint=eastwest;whiteSpace=wrap;html=1;" parent="JS-59geEHKysc21OP4H1-25" vertex="1">
          <mxGeometry y="26" width="160" height="26" as="geometry" />
        </mxCell>
        <mxCell id="JS-59geEHKysc21OP4H1-27" value="" style="line;strokeWidth=1;fillColor=none;align=left;verticalAlign=middle;spacingTop=-1;spacingLeft=3;spacingRight=3;rotatable=0;labelPosition=right;points=[];portConstraint=eastwest;strokeColor=inherit;" parent="JS-59geEHKysc21OP4H1-25" vertex="1">
          <mxGeometry y="52" width="160" height="8" as="geometry" />
        </mxCell>
        <mxCell id="JS-59geEHKysc21OP4H1-32" style="edgeStyle=orthogonalEdgeStyle;rounded=0;orthogonalLoop=1;jettySize=auto;html=1;exitX=0.5;exitY=0;exitDx=0;exitDy=0;entryX=0.5;entryY=1;entryDx=0;entryDy=0;" parent="1" source="JS-59geEHKysc21OP4H1-25" target="JS-59geEHKysc21OP4H1-3" edge="1">
          <mxGeometry relative="1" as="geometry">
            <mxPoint x="380" y="-1250" as="targetPoint" />
            <mxPoint x="450" y="-1088" as="sourcePoint" />
            <Array as="points">
              <mxPoint x="440" y="-1130" />
              <mxPoint x="570" y="-1130" />
            </Array>
          </mxGeometry>
        </mxCell>
        <mxCell id="oh4hQgVibZioyu9YtWm5-2" value="Pausa" style="swimlane;fontStyle=1;align=center;verticalAlign=top;childLayout=stackLayout;horizontal=1;startSize=26;horizontalStack=0;resizeParent=1;resizeParentMax=0;resizeLast=0;collapsible=1;marginBottom=0;whiteSpace=wrap;html=1;" parent="1" vertex="1">
          <mxGeometry x="150" y="-1330" width="160" height="60" as="geometry" />
        </mxCell>
        <mxCell id="oh4hQgVibZioyu9YtWm5-3" value="&amp;nbsp;" style="text;strokeColor=none;fillColor=none;align=left;verticalAlign=top;spacingLeft=4;spacingRight=4;overflow=hidden;rotatable=0;points=[[0,0.5],[1,0.5]];portConstraint=eastwest;whiteSpace=wrap;html=1;" parent="oh4hQgVibZioyu9YtWm5-2" vertex="1">
          <mxGeometry y="26" width="160" height="26" as="geometry" />
        </mxCell>
        <mxCell id="oh4hQgVibZioyu9YtWm5-4" value="" style="line;strokeWidth=1;fillColor=none;align=left;verticalAlign=middle;spacingTop=-1;spacingLeft=3;spacingRight=3;rotatable=0;labelPosition=right;points=[];portConstraint=eastwest;strokeColor=inherit;" parent="oh4hQgVibZioyu9YtWm5-2" vertex="1">
          <mxGeometry y="52" width="160" height="8" as="geometry" />
        </mxCell>
        <mxCell id="oh4hQgVibZioyu9YtWm5-5" value="" style="endArrow=diamondThin;endFill=1;endSize=24;html=1;rounded=0;entryX=0.75;entryY=1;entryDx=0;entryDy=0;exitX=1;exitY=0.5;exitDx=0;exitDy=0;" parent="1" source="5vtmu79jiAvLtElCgTqz-107" target="5vtmu79jiAvLtElCgTqz-73" edge="1">
          <mxGeometry width="160" relative="1" as="geometry">
            <mxPoint x="320" y="-1278" as="sourcePoint" />
            <mxPoint x="343" y="-1482" as="targetPoint" />
            <Array as="points">
              <mxPoint x="333" y="-1220" />
            </Array>
          </mxGeometry>
        </mxCell>
      </root>
    </mxGraphModel>
  </diagram>
</mxfile>
